<svg width="177" height="36" viewBox="0 0 177 36" fill="none" xmlns="http://www.w3.org/2000/svg">
<path d="M44.16 27V9.864H54.984V12.864H47.784V16.44H49.224C50.84 16.44 52.16 16.664 53.184 17.112C54.224 17.56 54.992 18.176 55.488 18.96C55.984 19.744 56.232 20.64 56.232 21.648C56.232 22.768 55.984 23.728 55.488 24.528C54.992 25.328 54.224 25.944 53.184 26.376C52.144 26.792 50.8 27 49.152 27H44.16ZM49.008 24.024C50.112 24.024 50.976 23.848 51.6 23.496C52.24 23.144 52.56 22.528 52.56 21.648C52.56 21.04 52.4 20.576 52.08 20.256C51.776 19.936 51.336 19.72 50.76 19.608C50.2 19.48 49.52 19.416 48.72 19.416H47.784V24.024H49.008ZM64.5767 13.656C65.7927 13.656 66.8327 13.888 67.6967 14.352C68.5767 14.816 69.2567 15.488 69.7367 16.368C70.2167 17.248 70.4567 18.328 70.4567 19.608V21.336H62.0087C62.0407 22.344 62.3367 23.136 62.8967 23.712C63.4727 24.288 64.2647 24.576 65.2727 24.576C66.1207 24.576 66.8887 24.496 67.5767 24.336C68.2647 24.16 68.9767 23.896 69.7127 23.544V26.304C69.0727 26.624 68.3927 26.856 67.6727 27C66.9687 27.16 66.1127 27.24 65.1047 27.24C63.7927 27.24 62.6327 27 61.6247 26.52C60.6167 26.024 59.8247 25.28 59.2487 24.288C58.6727 23.296 58.3847 22.048 58.3847 20.544C58.3847 19.008 58.6407 17.736 59.1527 16.728C59.6807 15.704 60.4087 14.936 61.3367 14.424C62.2647 13.912 63.3447 13.656 64.5767 13.656ZM64.6007 16.2C63.9127 16.2 63.3367 16.424 62.8727 16.872C62.4247 17.32 62.1607 18.016 62.0807 18.96H67.0967C67.0967 18.432 67.0007 17.96 66.8087 17.544C66.6327 17.128 66.3607 16.8 65.9927 16.56C65.6247 16.32 65.1607 16.2 64.6007 16.2ZM72.5644 19.152C72.5644 17.216 72.8044 15.576 73.2844 14.232C73.7644 12.872 74.5244 11.792 75.5644 10.992C76.6044 10.176 77.9644 9.624 79.6444 9.336C80.4924 9.192 81.3484 9.072 82.2124 8.976C83.0924 8.864 83.9964 8.752 84.9244 8.64L85.3324 11.76C84.9324 11.808 84.4924 11.864 84.0124 11.928C83.5324 11.976 83.0444 12.032 82.5484 12.096C82.0684 12.144 81.6044 12.2 81.1564 12.264C80.7084 12.328 80.3004 12.384 79.9324 12.432C79.3404 12.528 78.8204 12.664 78.3724 12.84C77.9244 13 77.5484 13.232 77.2444 13.536C76.9404 13.84 76.7004 14.256 76.5244 14.784C76.3644 15.296 76.2604 15.96 76.2124 16.776H76.3804C76.5724 16.472 76.8364 16.168 77.1724 15.864C77.5244 15.56 77.9564 15.304 78.4684 15.096C78.9804 14.888 79.5644 14.784 80.2204 14.784C81.2604 14.784 82.1644 15 82.9324 15.432C83.7004 15.864 84.2924 16.504 84.7084 17.352C85.1244 18.2 85.3324 19.256 85.3324 20.52C85.3324 22.008 85.0604 23.248 84.5164 24.24C83.9724 25.232 83.2204 25.984 82.2604 26.496C81.3004 26.992 80.1884 27.24 78.9244 27.24C77.9644 27.24 77.0924 27.064 76.3084 26.712C75.5244 26.36 74.8524 25.84 74.2924 25.152C73.7324 24.464 73.3004 23.616 72.9964 22.608C72.7084 21.6 72.5644 20.448 72.5644 19.152ZM79.1404 24.336C79.6524 24.336 80.0924 24.224 80.4604 24C80.8444 23.776 81.1404 23.408 81.3484 22.896C81.5724 22.384 81.6844 21.696 81.6844 20.832C81.6844 19.792 81.5084 18.968 81.1564 18.36C80.8204 17.736 80.2284 17.424 79.3804 17.424C78.8684 17.424 78.3884 17.552 77.9404 17.808C77.5084 18.048 77.1404 18.328 76.8364 18.648C76.5324 18.952 76.3244 19.216 76.2124 19.44C76.2124 20.064 76.2604 20.672 76.3564 21.264C76.4524 21.84 76.6124 22.36 76.8364 22.824C77.0604 23.288 77.3564 23.656 77.7244 23.928C78.1084 24.2 78.5804 24.336 79.1404 24.336ZM95.5821 13.656C97.0541 13.656 98.2461 14.232 99.1581 15.384C100.07 16.52 100.526 18.2 100.526 20.424C100.526 21.912 100.31 23.168 99.8781 24.192C99.4461 25.2 98.8541 25.96 98.1021 26.472C97.3501 26.984 96.4781 27.24 95.4861 27.24C94.8621 27.24 94.3181 27.16 93.8541 27C93.4061 26.84 93.0221 26.632 92.7021 26.376C92.3821 26.12 92.1021 25.848 91.8621 25.56H91.6701C91.7341 25.864 91.7821 26.184 91.8141 26.52C91.8461 26.84 91.8621 27.16 91.8621 27.48V32.76H88.2861V13.896H91.1901L91.6941 15.6H91.8621C92.1021 15.248 92.3901 14.928 92.7261 14.64C93.0621 14.336 93.4621 14.096 93.9261 13.92C94.4061 13.744 94.9581 13.656 95.5821 13.656ZM94.4301 16.512C93.8061 16.512 93.3101 16.64 92.9421 16.896C92.5741 17.152 92.3021 17.544 92.1261 18.072C91.9661 18.584 91.8781 19.232 91.8621 20.016V20.4C91.8621 21.248 91.9421 21.968 92.1021 22.56C92.2621 23.136 92.5341 23.576 92.9181 23.88C93.3021 24.184 93.8221 24.336 94.4781 24.336C95.0221 24.336 95.4701 24.184 95.8221 23.88C96.1741 23.576 96.4381 23.128 96.6141 22.536C96.7901 21.944 96.8781 21.224 96.8781 20.376C96.8781 19.096 96.6781 18.136 96.2781 17.496C95.8941 16.84 95.2781 16.512 94.4301 16.512ZM108.85 13.632C110.61 13.632 111.954 14.016 112.882 14.784C113.826 15.536 114.298 16.696 114.298 18.264V27H111.802L111.106 25.224H111.01C110.642 25.688 110.258 26.072 109.858 26.376C109.474 26.68 109.026 26.896 108.514 27.024C108.018 27.168 107.402 27.24 106.666 27.24C105.898 27.24 105.202 27.096 104.578 26.808C103.97 26.504 103.49 26.048 103.138 25.44C102.786 24.816 102.61 24.032 102.61 23.088C102.61 21.696 103.098 20.672 104.074 20.016C105.05 19.344 106.514 18.976 108.466 18.912L110.746 18.84V18.264C110.746 17.576 110.562 17.072 110.194 16.752C109.842 16.432 109.346 16.272 108.706 16.272C108.066 16.272 107.442 16.368 106.834 16.56C106.226 16.736 105.618 16.96 105.01 17.232L103.834 14.808C104.538 14.44 105.314 14.152 106.162 13.944C107.026 13.736 107.922 13.632 108.85 13.632ZM109.354 20.976C108.202 21.008 107.402 21.216 106.954 21.6C106.506 21.984 106.282 22.488 106.282 23.112C106.282 23.656 106.442 24.048 106.762 24.288C107.082 24.512 107.498 24.624 108.01 24.624C108.778 24.624 109.426 24.4 109.954 23.952C110.482 23.488 110.746 22.84 110.746 22.008V20.928L109.354 20.976ZM118.246 27V9.864H129.07V12.864H121.87V16.44H123.31C124.926 16.44 126.246 16.664 127.27 17.112C128.31 17.56 129.078 18.176 129.574 18.96C130.07 19.744 130.318 20.64 130.318 21.648C130.318 22.768 130.07 23.728 129.574 24.528C129.078 25.328 128.31 25.944 127.27 26.376C126.23 26.792 124.886 27 123.238 27H118.246ZM123.094 24.024C124.198 24.024 125.062 23.848 125.686 23.496C126.326 23.144 126.646 22.528 126.646 21.648C126.646 21.04 126.486 20.576 126.166 20.256C125.862 19.936 125.422 19.72 124.846 19.608C124.286 19.48 123.606 19.416 122.806 19.416H121.87V24.024H123.094ZM138.639 13.632C140.399 13.632 141.743 14.016 142.671 14.784C143.615 15.536 144.087 16.696 144.087 18.264V27H141.591L140.895 25.224H140.799C140.431 25.688 140.047 26.072 139.647 26.376C139.263 26.68 138.815 26.896 138.303 27.024C137.807 27.168 137.191 27.24 136.455 27.24C135.687 27.24 134.991 27.096 134.367 26.808C133.759 26.504 133.279 26.048 132.927 25.44C132.575 24.816 132.399 24.032 132.399 23.088C132.399 21.696 132.887 20.672 133.863 20.016C134.839 19.344 136.303 18.976 138.255 18.912L140.535 18.84V18.264C140.535 17.576 140.351 17.072 139.983 16.752C139.631 16.432 139.135 16.272 138.495 16.272C137.855 16.272 137.231 16.368 136.623 16.56C136.015 16.736 135.407 16.96 134.799 17.232L133.623 14.808C134.327 14.44 135.103 14.152 135.951 13.944C136.815 13.736 137.711 13.632 138.639 13.632ZM139.143 20.976C137.991 21.008 137.191 21.216 136.743 21.6C136.295 21.984 136.071 22.488 136.071 23.112C136.071 23.656 136.231 24.048 136.551 24.288C136.871 24.512 137.287 24.624 137.799 24.624C138.567 24.624 139.215 24.4 139.743 23.952C140.271 23.488 140.535 22.84 140.535 22.008V20.928L139.143 20.976ZM151.323 13.896V18.936H156.315V13.896H159.891V27H156.315V21.6H151.323V27H147.747V13.896H151.323ZM172.23 13.896H176.166L170.982 20.184L176.622 27H172.566L167.214 20.352V27H163.638V13.896H167.214V20.256L172.23 13.896Z" fill="white"/>
<path d="M17 0L21.4838 13.2525L34 18L21.4838 22.7475L17 36L12.5162 22.7475L0 18L12.5162 13.2525L17 0Z" fill="#5257D3"/>
</svg>
