<svg xmlns="http://www.w3.org/2000/svg" width="169" height="36" fill="none" viewBox="0 0 169 36"><path fill="#fff" d="M43.104 27V24.216H45.312V12.984H43.104V10.2H51.744C52.768 10.2 53.656 10.376 54.408 10.728C55.176 11.064 55.768 11.552 56.184 12.192C56.616 12.816 56.832 13.568 56.832 14.448V14.688C56.832 15.456 56.688 16.088 56.4 16.584C56.112 17.064 55.768 17.44 55.368 17.712C54.984 17.968 54.616 18.152 54.264 18.264V18.696C54.616 18.792 55 18.976 55.416 19.248C55.832 19.504 56.184 19.88 56.472 20.376C56.776 20.872 56.928 21.52 56.928 22.32V22.56C56.928 23.488 56.712 24.288 56.28 24.96C55.848 25.616 55.248 26.12 54.48 26.472C53.728 26.824 52.848 27 51.84 27H43.104ZM48.48 24.12H51.456C52.144 24.12 52.696 23.952 53.112 23.616C53.544 23.28 53.76 22.8 53.76 22.176V21.936C53.76 21.312 53.552 20.832 53.136 20.496C52.72 20.16 52.16 19.992 51.456 19.992H48.48V24.12ZM48.48 17.112H51.408C52.064 17.112 52.6 16.944 53.016 16.608C53.448 16.272 53.664 15.808 53.664 15.216V14.976C53.664 14.368 53.456 13.904 53.04 13.584C52.624 13.248 52.08 13.08 51.408 13.08H48.48V17.112ZM65.0415 27.336C63.8575 27.336 62.8095 27.088 61.8975 26.592C61.0015 26.08 60.2975 25.368 59.7855 24.456C59.2895 23.528 59.0415 22.44 59.0415 21.192V20.904C59.0415 19.656 59.2895 18.576 59.7855 17.664C60.2815 16.736 60.9775 16.024 61.8735 15.528C62.7695 15.016 63.8095 14.76 64.9935 14.76C66.1615 14.76 67.1775 15.024 68.0415 15.552C68.9055 16.064 69.5775 16.784 70.0575 17.712C70.5375 18.624 70.7775 19.688 70.7775 20.904V21.936H62.1135C62.1455 22.752 62.4495 23.416 63.0255 23.928C63.6015 24.44 64.3055 24.696 65.1375 24.696C65.9855 24.696 66.6095 24.512 67.0095 24.144C67.4095 23.776 67.7135 23.368 67.9215 22.92L70.3935 24.216C70.1695 24.632 69.8415 25.088 69.4095 25.584C68.9935 26.064 68.4335 26.48 67.7295 26.832C67.0255 27.168 66.1295 27.336 65.0415 27.336ZM62.1375 19.68H67.7055C67.6415 18.992 67.3615 18.44 66.8655 18.024C66.3855 17.608 65.7535 17.4 64.9695 17.4C64.1535 17.4 63.5055 17.608 63.0255 18.024C62.5455 18.44 62.2495 18.992 62.1375 19.68ZM80.6211 27.336C79.5491 27.336 78.7251 27.152 78.1491 26.784C77.5731 26.416 77.1491 26.008 76.8771 25.56H76.4451V27H73.4691V10.2H76.4931V16.464H76.9251C77.1011 16.176 77.3331 15.904 77.6211 15.648C77.9251 15.392 78.3171 15.184 78.7971 15.024C79.2931 14.848 79.9011 14.76 80.6211 14.76C81.5811 14.76 82.4691 15 83.2851 15.48C84.1011 15.944 84.7571 16.632 85.2531 17.544C85.7491 18.456 85.9971 19.56 85.9971 20.856V21.24C85.9971 22.536 85.7491 23.64 85.2531 24.552C84.7571 25.464 84.1011 26.16 83.2851 26.64C82.4691 27.104 81.5811 27.336 80.6211 27.336ZM79.7091 24.696C80.6371 24.696 81.4131 24.4 82.0371 23.808C82.6611 23.2 82.9731 22.32 82.9731 21.168V20.928C82.9731 19.776 82.6611 18.904 82.0371 18.312C81.4291 17.704 80.6531 17.4 79.7091 17.4C78.7811 17.4 78.0051 17.704 77.3811 18.312C76.7571 18.904 76.4451 19.776 76.4451 20.928V21.168C76.4451 22.32 76.7571 23.2 77.3811 23.808C78.0051 24.4 78.7811 24.696 79.7091 24.696ZM88.7738 27V15.096H91.7498V16.44H92.1818C92.3578 15.96 92.6458 15.608 93.0458 15.384C93.4618 15.16 93.9418 15.048 94.4858 15.048H95.9258V17.736H94.4378C93.6698 17.736 93.0378 17.944 92.5418 18.36C92.0458 18.76 91.7978 19.384 91.7978 20.232V27H88.7738ZM101.704 27.336C100.856 27.336 100.096 27.192 99.4241 26.904C98.7521 26.6 98.2161 26.168 97.8161 25.608C97.4321 25.032 97.2401 24.336 97.2401 23.52C97.2401 22.704 97.4321 22.024 97.8161 21.48C98.2161 20.92 98.7601 20.504 99.4481 20.232C100.152 19.944 100.952 19.8 101.848 19.8H105.112V19.128C105.112 18.568 104.936 18.112 104.584 17.76C104.232 17.392 103.672 17.208 102.904 17.208C102.152 17.208 101.592 17.384 101.224 17.736C100.856 18.072 100.616 18.512 100.504 19.056L97.7201 18.12C97.9121 17.512 98.2161 16.96 98.6321 16.464C99.0641 15.952 99.6321 15.544 100.336 15.24C101.056 14.92 101.928 14.76 102.952 14.76C104.52 14.76 105.76 15.152 106.672 15.936C107.584 16.72 108.04 17.856 108.04 19.344V23.784C108.04 24.264 108.264 24.504 108.712 24.504H109.672V27H107.656C107.064 27 106.576 26.856 106.192 26.568C105.808 26.28 105.616 25.896 105.616 25.416V25.392H105.16C105.096 25.584 104.952 25.84 104.728 26.16C104.504 26.464 104.152 26.736 103.672 26.976C103.192 27.216 102.536 27.336 101.704 27.336ZM102.232 24.888C103.08 24.888 103.768 24.656 104.296 24.192C104.84 23.712 105.112 23.08 105.112 22.296V22.056H102.064C101.504 22.056 101.064 22.176 100.744 22.416C100.424 22.656 100.264 22.992 100.264 23.424C100.264 23.856 100.432 24.208 100.768 24.48C101.104 24.752 101.592 24.888 102.232 24.888ZM111.307 27V24.216H113.515V12.984H111.307V10.2H119.947C120.971 10.2 121.859 10.376 122.611 10.728C123.379 11.064 123.971 11.552 124.387 12.192C124.819 12.816 125.035 13.568 125.035 14.448V14.688C125.035 15.456 124.891 16.088 124.603 16.584C124.315 17.064 123.971 17.44 123.571 17.712C123.187 17.968 122.819 18.152 122.467 18.264V18.696C122.819 18.792 123.203 18.976 123.619 19.248C124.035 19.504 124.387 19.88 124.675 20.376C124.979 20.872 125.131 21.52 125.131 22.32V22.56C125.131 23.488 124.915 24.288 124.483 24.96C124.051 25.616 123.451 26.12 122.683 26.472C121.931 26.824 121.051 27 120.043 27H111.307ZM116.683 24.12H119.659C120.347 24.12 120.899 23.952 121.315 23.616C121.747 23.28 121.963 22.8 121.963 22.176V21.936C121.963 21.312 121.755 20.832 121.339 20.496C120.923 20.16 120.363 19.992 119.659 19.992H116.683V24.12ZM116.683 17.112H119.611C120.267 17.112 120.803 16.944 121.219 16.608C121.651 16.272 121.867 15.808 121.867 15.216V14.976C121.867 14.368 121.659 13.904 121.243 13.584C120.827 13.248 120.283 13.08 119.611 13.08H116.683V17.112ZM131.517 27.336C130.669 27.336 129.909 27.192 129.237 26.904C128.565 26.6 128.029 26.168 127.629 25.608C127.245 25.032 127.053 24.336 127.053 23.52C127.053 22.704 127.245 22.024 127.629 21.48C128.029 20.92 128.573 20.504 129.261 20.232C129.965 19.944 130.765 19.8 131.661 19.8H134.925V19.128C134.925 18.568 134.749 18.112 134.397 17.76C134.045 17.392 133.485 17.208 132.717 17.208C131.965 17.208 131.405 17.384 131.037 17.736C130.669 18.072 130.429 18.512 130.317 19.056L127.533 18.12C127.725 17.512 128.029 16.96 128.445 16.464C128.877 15.952 129.445 15.544 130.149 15.24C130.869 14.92 131.741 14.76 132.765 14.76C134.333 14.76 135.573 15.152 136.485 15.936C137.397 16.72 137.853 17.856 137.853 19.344V23.784C137.853 24.264 138.077 24.504 138.525 24.504H139.485V27H137.469C136.877 27 136.389 26.856 136.005 26.568C135.621 26.28 135.429 25.896 135.429 25.416V25.392H134.973C134.909 25.584 134.765 25.84 134.541 26.16C134.317 26.464 133.965 26.736 133.485 26.976C133.005 27.216 132.349 27.336 131.517 27.336ZM132.045 24.888C132.893 24.888 133.581 24.656 134.109 24.192C134.653 23.712 134.925 23.08 134.925 22.296V22.056H131.877C131.317 22.056 130.877 22.176 130.557 22.416C130.237 22.656 130.077 22.992 130.077 23.424C130.077 23.856 130.245 24.208 130.581 24.48C130.917 24.752 131.405 24.888 132.045 24.888ZM141.696 27V15.096H144.672V16.656H145.104C145.296 16.24 145.656 15.848 146.184 15.48C146.712 15.096 147.512 14.904 148.584 14.904C149.512 14.904 150.32 15.12 151.008 15.552C151.712 15.968 152.256 16.552 152.64 17.304C153.024 18.04 153.216 18.904 153.216 19.896V27H150.192V20.136C150.192 19.24 149.968 18.568 149.52 18.12C149.088 17.672 148.464 17.448 147.648 17.448C146.72 17.448 146 17.76 145.488 18.384C144.976 18.992 144.72 19.848 144.72 20.952V27H141.696ZM156.485 27V10.2H159.509V19.488H159.941L163.877 15.096H167.813L162.317 20.856L168.005 27H164.117L159.941 22.272H159.509V27H156.485Z"/><path fill="#5257D3" d="M17 0L21.4838 13.2525L34 18L21.4838 22.7475L17 36L12.5162 22.7475L0 18L12.5162 13.2525L17 0Z"/></svg>